PathFileType	4	(X/Y/Z)	c:/Users/goper/Files/vsCode/490R/osim_files/C08/C08_Slow_02.trc
DataRate	CameraRate	NumFrames	NumMarkers	Units                	OrigDataRate	OrigDataStartFrame	OrigNumFrames
250.00	250.00	9	36	mm	250.0	995	2652
                Frame#	Time	LPSIS			LASIS			LTH1			LTH2			LTH3			LTH4			LLFE			LMFE			LSH1			LSH2			LSH3			LSH4			LLMAL			LMMAL			LCAL			LMTP5			LTOE			LMTP1			RPSIS			RASIS			RTH1			RTH2			RTH3			RTH4			RLFE			RMFE			RSH1			RSH2			RSH3			RSH4			RLMAL			RMMAL			RCAL			RMTP1			RTOE			RMTP5		
		X1	Y1	Z1	X2	Y2	Z2	X3	Y3	Z3	X4	Y4	Z4	X5	Y5	Z5	X6	Y6	Z6	X7	Y7	Z7	X8	Y8	Z8	X9	Y9	Z9	X10	Y10	Z10	X11	Y11	Z11	X12	Y12	Z12	X13	Y13	Z13	X14	Y14	Z14	X15	Y15	Z15	X16	Y16	Z16	X17	Y17	Z17	X18	Y18	Z18	X19	Y19	Z19	X20	Y20	Z20	X21	Y21	Z21	X22	Y22	Z22	X23	Y23	Z23	X24	Y24	Z24	X25	Y25	Z25	X26	Y26	Z26	X27	Y27	Z27	X28	Y28	Z28	X29	Y29	Z29	X30	Y30	Z30	X31	Y31	Z31	X32	Y32	Z32	X33	Y33	Z33	X34	Y34	Z34	X35	Y35	Z35	X36	Y36	Z36

995	3.97600	1336.70337	1042.12964	132.59874	1123.65356	1020.08911	1.91158	1220.55896	724.13208	311.10715	1206.17883	644.77271	300.63007	1198.05505	571.91870	301.22952	1126.31763	658.60242	298.98383	1197.71399	524.44061	295.75336	1154.30408	509.06738	170.98586	1297.90820	472.93646	293.25015	1328.51953	435.82492	291.90005	1255.09058	429.45322	302.53897	0.00000	0.00000	0.00000	1517.65479	247.54976	223.44455	1481.99268	233.13940	140.76025	1564.39160	281.14700	158.67078	1500.34888	117.93473	255.92946	0.00000	0.00000	0.00000	1276.67163	-6.28390	194.48782	1329.47009	1043.23743	73.00715	1140.80542	1004.71838	239.24873	1154.65845	752.45020	-65.21181	1142.97913	673.96454	-41.13775	1131.67871	596.97656	-30.94772	1072.84155	692.19745	-13.55873	1120.87988	528.85724	-15.88716	0.00000	0.00000	0.00000	1170.60889	441.10068	-37.27254	1162.80737	396.98459	-40.83446	1109.81836	443.80002	-23.59355	1109.38525	399.22952	-27.88695	1165.95764	100.55225	22.69652	1137.05090	105.78226	112.85568	1221.93774	77.11709	93.80187	1006.66992	49.34507	100.60804	990.09979	68.82481	47.30273	1041.61511	48.75791	-12.25541
996	3.98000	1332.93079	1042.70032	132.12228	1119.64941	1020.20575	1.41819	1214.57190	725.01892	311.18933	1199.44019	645.75238	300.85263	1191.26526	573.50464	301.58725	1119.72583	660.35236	299.70410	1190.70776	526.21191	296.40158	1145.39624	510.15207	171.88655	1289.19519	474.29681	293.37708	1320.33972	437.11386	292.32513	1246.21106	430.98349	303.12085	1280.85901	401.63007	295.88538	1509.15259	248.96791	223.57365	1473.49109	234.23767	141.86989	1555.90686	281.61652	158.62509	1492.26501	119.84989	257.04865	1454.79456	71.74708	184.20132	1269.55078	-5.65195	194.81633	1325.39563	1043.69470	72.59912	1136.96472	1005.06714	239.27173	1151.66162	752.68195	-65.49500	1140.71167	675.87451	-42.91607	1129.92773	597.07623	-31.19078	1070.75000	692.29114	-13.23632	1119.02124	528.50421	-16.16231	1134.13013	524.81610	106.13818	1169.70239	441.25867	-37.43706	1161.97217	397.07159	-40.96629	1108.92102	443.78531	-23.87104	1108.59314	399.16458	-28.09651	1165.95642	100.61230	22.65538	1136.98694	105.88206	112.80872	1221.84119	77.11627	93.77953	1007.02155	49.19196	100.50131	990.08954	68.78653	47.27454	1041.48755	48.51775	-12.21468
997	3.98400	1328.89514	1043.20947	131.70718	1115.51099	1020.29492	0.92243	1208.59656	725.92401	311.25696	1192.56238	646.68274	301.01077	1183.19324	574.10242	301.86395	1112.98901	662.03833	300.28806	1182.78552	527.45459	296.86395	1137.63049	511.68106	172.37596	1281.06982	476.08768	293.35684	1312.39783	439.08368	292.49783	1238.98486	433.16809	303.72620	0.00000	0.00000	0.00000	1500.47546	250.14951	223.73604	1464.42151	235.14871	142.22462	1546.17322	282.08859	157.64810	1483.01416	120.94428	257.52182	0.00000	0.00000	0.00000	1262.34216	-5.00189	195.14458	1321.32507	1044.16040	72.21218	1132.96313	1005.49170	239.31992	1147.20410	752.77747	-65.96503	1138.45544	676.37299	-43.34207	1128.24280	597.12592	-31.42044	1068.19360	691.73401	-13.94397	1118.29407	528.80280	-16.26418	1129.39087	522.93207	105.59827	1169.65308	441.73837	-37.64408	1161.25745	397.18109	-41.08649	1107.99109	443.73553	-24.02973	1107.84863	399.16412	-28.28718	1165.86499	100.62321	22.63961	1136.89514	106.01395	112.77898	1221.83801	77.16412	93.73652	1007.02124	49.18484	100.48133	990.08374	68.73064	47.24775	1041.61914	48.67816	-12.29943
998	3.98800	1324.40479	1043.70471	131.26151	1111.57300	1020.41290	0.41121	1202.55945	726.83600	311.30856	1185.79028	647.68579	301.16913	1175.74207	575.21033	302.06390	1106.31177	663.67603	300.90823	1175.01257	528.75488	297.29193	1129.35107	512.98883	173.05537	1272.34436	477.33325	293.44907	1303.93542	440.47931	292.77713	1230.69275	434.80731	304.31857	0.00000	0.00000	0.00000	1491.02869	250.34782	223.83492	1455.23584	235.85031	142.56464	1537.77844	283.24396	158.64322	1474.09607	122.14748	258.32684	1406.99744	94.70438	211.02193	1255.04480	-4.33357	195.47260	1317.30566	1044.69519	71.86697	1128.93555	1005.93353	239.32968	1147.96240	753.86072	-62.70938	1136.17126	676.39618	-43.51447	1126.52698	597.20636	-31.59887	1066.10754	691.87842	-13.59356	1117.05774	528.80902	-16.43250	1127.98389	522.92523	105.39696	1167.95386	441.55243	-37.66879	1160.46399	397.34341	-41.19122	1107.12756	443.74634	-24.20749	1107.10583	399.17459	-28.44757	1165.85474	100.67500	22.59467	1137.44568	106.47546	112.87347	1221.90173	77.26412	93.71138	1007.00476	49.16593	100.47368	990.05652	68.66863	47.25318	1041.50830	48.43824	-12.25945
999	3.99200	1320.52356	1044.27600	130.97742	1107.65784	1020.57849	-0.11153	1196.59583	727.81250	311.38556	1179.04028	648.72510	301.33997	1169.02612	576.86298	302.34998	1099.67334	665.34119	301.47134	1167.20203	530.08051	297.70383	1120.45728	514.11078	173.95776	1264.06750	478.79190	293.43149	1295.61670	443.48593	290.51993	1221.47302	436.06143	304.83896	1255.90222	406.07532	298.06293	1482.92261	251.88458	223.98553	1445.39941	236.35394	142.15988	1528.79333	283.52869	158.40536	1465.46167	123.72395	259.51379	1397.02197	95.50829	212.63535	1247.65845	-3.64687	195.80031	1313.33789	1045.28723	71.54289	1126.40735	1006.62622	239.39001	1144.18152	754.16779	-63.56369	1133.26001	675.78638	-43.37497	1124.79993	597.26086	-31.73785	1063.80591	691.63275	-13.79125	1115.84082	528.85266	-16.57106	1126.71765	522.98743	105.23789	1167.08203	441.72607	-37.73885	1159.75696	397.49033	-41.24159	1106.18616	443.73969	-24.30458	1106.39612	399.18073	-28.58378	1165.80164	100.70766	22.55484	1136.73413	106.19185	112.74616	1221.86682	77.27241	93.69375	1006.84277	48.96161	100.45229	990.03345	68.59393	47.22234	1041.65283	48.59813	-12.35130
1000	3.99600	1316.54553	1044.92725	130.70340	1103.80603	1020.74164	-0.61112	1188.99390	727.94507	311.45200	1172.22253	649.71399	301.49451	1161.68774	577.98389	302.63269	1093.06580	667.00177	302.02472	1158.57385	530.83051	297.92130	1112.85510	515.66083	174.39143	1255.77612	480.16992	293.45389	1287.30603	444.84119	290.64438	1213.23914	437.59100	305.44116	1247.82129	407.66223	298.74817	1474.10364	252.92450	225.38481	1436.07678	236.60831	142.50880	1519.50159	283.70511	157.81384	1456.28723	124.63132	260.36908	0.00000	0.00000	0.00000	1240.18274	-2.94171	196.12778	1309.39600	1045.85217	71.29337	1120.24109	1006.66089	239.24017	0.00000	0.00000	0.00000	0.00000	0.00000	0.00000	1123.12427	597.31580	-31.87977	1061.59558	691.30664	-13.88915	1114.34180	528.65344	-16.50984	1125.59216	523.09076	105.12379	1166.26685	441.90518	-37.76291	1159.05164	397.64932	-41.26868	1105.44177	443.77554	-24.49804	1105.83545	399.48422	-28.88480	1165.69702	100.87006	22.87595	1136.66211	106.26730	112.73781	1221.85767	77.28884	93.67854	1006.83905	48.92442	100.43507	990.03992	68.51967	47.21033	1041.63647	48.54671	-12.34805
1001	4.00000	1312.55701	1045.57605	130.48535	1099.88953	1020.93457	-1.15571	1183.09595	729.16510	311.50156	1165.54126	650.78845	301.69299	1154.35925	579.15546	302.86569	1088.00769	670.67096	304.42020	1150.84729	532.10931	298.29156	1104.69580	517.06433	175.01170	1247.57202	481.49191	293.41928	1278.97034	446.09729	290.75934	1205.93811	439.42984	305.99652	1239.12952	408.74762	299.25366	1464.77234	252.73370	224.30438	1409.41321	242.67401	147.42606	1510.33044	283.20276	157.46509	1446.09387	124.90016	261.11148	0.00000	0.00000	0.00000	1232.61694	-2.21802	196.45500	1305.48254	1046.47058	71.08840	1116.19922	1007.27002	239.06306	1139.40747	754.33008	-65.69673	0.00000	0.00000	0.00000	1121.49023	597.38190	-32.01448	1059.39856	691.00232	-13.98994	1113.38379	528.80695	-16.77245	1124.45593	523.10785	105.01807	1165.42102	442.08389	-37.77371	1158.32410	397.78284	-41.27340	1104.50623	443.77191	-24.53743	1104.99023	399.22461	-28.78918	1165.71313	100.75497	22.54713	1137.22668	106.72086	112.83643	1221.81763	77.30690	93.71239	1006.83990	48.88555	100.43993	990.01715	68.47353	47.20961	1041.50818	48.32508	-12.33317
1002	4.00400	1308.49121	1046.39526	130.18327	1096.07544	1021.24188	-1.70508	1177.02722	730.07062	311.60422	1158.75244	651.77600	301.86578	1146.36975	579.84918	303.07828	1079.90173	670.28687	302.93698	1143.17725	533.37299	298.63718	1096.41443	518.17169	176.08113	1239.43958	482.70572	293.43033	1270.72998	447.28741	290.85751	1197.76575	440.89853	306.53766	1230.78931	410.00919	299.78732	1454.92847	252.10065	224.42513	1407.52161	241.21309	146.65324	1500.71741	282.01675	156.62161	1436.61206	125.68568	262.03629	1367.06274	97.54409	216.27376	1224.96069	-1.47565	196.78194	1301.63867	1047.09973	70.92024	1112.30566	1007.95630	238.83389	1136.61072	754.45294	-65.76122	0.00000	0.00000	0.00000	1119.80933	597.45471	-32.11732	1057.16577	690.68274	-14.09125	1112.21387	528.82672	-16.83484	1123.38416	523.12024	104.92291	1164.64502	442.27423	-37.74986	1157.65955	397.95721	-41.29351	1103.71814	443.78461	-24.61506	1104.26184	399.24176	-28.87326	1165.67603	100.76856	22.56112	1136.49182	106.38090	112.69402	1221.69690	77.18481	93.74876	1007.06488	48.95734	100.39870	990.03058	68.41216	47.20253	1041.52002	48.28521	-12.35329
1003	4.00800	1304.73035	1047.01135	130.11996	1092.30688	1021.48889	-2.20044	1170.93811	731.00159	311.71503	1151.95435	652.77771	302.02441	1139.10168	581.04962	303.31897	1073.30811	671.92029	303.28500	1135.60010	534.64655	298.99460	1089.30798	519.58759	177.07021	1231.40247	483.94104	293.48804	1262.46265	448.31552	290.96832	1189.61731	442.31030	306.99490	1222.73767	411.55115	300.31085	1446.33142	252.76006	224.65337	1405.96179	238.62173	145.52403	1492.17224	282.30359	157.34854	1425.52148	125.26298	262.51605	0.00000	0.00000	0.00000	1217.21350	-0.71452	197.10864	1297.74390	1047.69812	70.80691	1109.40601	1008.76208	238.65306	1135.62061	755.49164	-66.22053	0.00000	0.00000	0.00000	1118.23145	597.52661	-32.24791	1055.68982	690.07898	-13.92366	1110.56482	528.53247	-17.05393	1122.29004	523.15875	104.85081	1163.84290	442.47366	-37.74694	1156.93835	398.12851	-41.28260	1102.90747	443.82919	-24.68286	1103.63147	399.26620	-28.95882	1165.60754	100.80102	22.58814	1136.23254	106.30961	112.77805	1221.84021	77.16953	93.84203	1006.89081	48.86295	100.41641	990.04358	68.35619	47.16807	1041.52759	48.25676	-12.38675
